<mxfile host="app.diagrams.net" agent="Mozilla/5.0 (Macintosh; Intel Mac OS X 10_15_7) AppleWebKit/605.1.15 (KHTML, like Gecko) Version/18.3.1 Safari/605.1.15" version="26.2.14">
  <diagram name="Page-1" id="IUfqGNqF_nU_3NrTcYip">
    <mxGraphModel dx="1869" dy="1968" grid="1" gridSize="10" guides="1" tooltips="1" connect="1" arrows="1" fold="1" page="1" pageScale="1" pageWidth="3000" pageHeight="3000" background="light-dark(#FFFFFF,#000000)" math="0" shadow="0">
      <root>
        <mxCell id="0" />
        <mxCell id="1" parent="0" />
        <mxCell id="zjnKQ3IpLmYWNhm0Xe3--33" style="edgeStyle=orthogonalEdgeStyle;rounded=0;orthogonalLoop=1;jettySize=auto;html=1;exitX=1;exitY=0.5;exitDx=0;exitDy=0;entryX=0.5;entryY=0;entryDx=0;entryDy=0;curved=1;fontFamily=Gloria Hallelujah;fontSource=https%3A%2F%2Ffonts.googleapis.com%2Fcss%3Ffamily%3DGloria%2BHallelujah;labelBackgroundColor=light-dark(#FFFFFF,#000000);" edge="1" parent="1" source="zjnKQ3IpLmYWNhm0Xe3--6" target="zjnKQ3IpLmYWNhm0Xe3--12">
          <mxGeometry relative="1" as="geometry" />
        </mxCell>
        <mxCell id="zjnKQ3IpLmYWNhm0Xe3--34" style="edgeStyle=orthogonalEdgeStyle;rounded=0;orthogonalLoop=1;jettySize=auto;html=1;exitX=0.5;exitY=1;exitDx=0;exitDy=0;entryX=0;entryY=0.25;entryDx=0;entryDy=0;curved=1;fontFamily=Gloria Hallelujah;fontSource=https%3A%2F%2Ffonts.googleapis.com%2Fcss%3Ffamily%3DGloria%2BHallelujah;labelBackgroundColor=light-dark(#FFFFFF,#000000);" edge="1" parent="1" source="zjnKQ3IpLmYWNhm0Xe3--7" target="zjnKQ3IpLmYWNhm0Xe3--14">
          <mxGeometry relative="1" as="geometry" />
        </mxCell>
        <mxCell id="zjnKQ3IpLmYWNhm0Xe3--7" value="7. Database Storage" style="whiteSpace=wrap;strokeWidth=2;fontSize=46;fontFamily=Gloria Hallelujah;fontSource=https%3A%2F%2Ffonts.googleapis.com%2Fcss%3Ffamily%3DGloria%2BHallelujah;labelBackgroundColor=none;strokeColor=default;align=center;verticalAlign=middle;fontColor=default;fillColor=default;" vertex="1" parent="1">
          <mxGeometry x="40" y="976" width="520" height="214" as="geometry" />
        </mxCell>
        <mxCell id="zjnKQ3IpLmYWNhm0Xe3--8" value="8. Cache Update" style="whiteSpace=wrap;strokeWidth=2;fontSize=46;fontFamily=Gloria Hallelujah;fontSource=https%3A%2F%2Ffonts.googleapis.com%2Fcss%3Ffamily%3DGloria%2BHallelujah;labelBackgroundColor=none;strokeColor=default;align=center;verticalAlign=middle;fontColor=default;fillColor=default;" vertex="1" parent="1">
          <mxGeometry x="600" y="976" width="400" height="214" as="geometry" />
        </mxCell>
        <mxCell id="zjnKQ3IpLmYWNhm0Xe3--9" value="9. Distribution Processing (Fan out)" style="whiteSpace=wrap;strokeWidth=2;fontSize=46;fontFamily=Gloria Hallelujah;fontSource=https%3A%2F%2Ffonts.googleapis.com%2Fcss%3Ffamily%3DGloria%2BHallelujah;labelBackgroundColor=none;strokeColor=#0e8088;align=center;verticalAlign=middle;fillColor=#b0e3e6;" vertex="1" parent="1">
          <mxGeometry x="1210" y="848" width="880" height="78" as="geometry" />
        </mxCell>
        <mxCell id="zjnKQ3IpLmYWNhm0Xe3--10" value="10. Timeline Updates" style="whiteSpace=wrap;strokeWidth=2;fontSize=46;fontFamily=Gloria Hallelujah;fontSource=https%3A%2F%2Ffonts.googleapis.com%2Fcss%3Ffamily%3DGloria%2BHallelujah;labelBackgroundColor=none;strokeColor=default;align=center;verticalAlign=middle;fontColor=default;fillColor=default;" vertex="1" parent="1">
          <mxGeometry x="1020" y="976" width="370" height="214" as="geometry" />
        </mxCell>
        <mxCell id="zjnKQ3IpLmYWNhm0Xe3--11" value="11. Notification Generation" style="whiteSpace=wrap;strokeWidth=2;fontSize=46;fontFamily=Gloria Hallelujah;fontSource=https%3A%2F%2Ffonts.googleapis.com%2Fcss%3Ffamily%3DGloria%2BHallelujah;labelBackgroundColor=none;strokeColor=default;align=center;verticalAlign=middle;fontColor=default;fillColor=default;" vertex="1" parent="1">
          <mxGeometry x="1410" y="976" width="540" height="214" as="geometry" />
        </mxCell>
        <mxCell id="zjnKQ3IpLmYWNhm0Xe3--12" value="12. Analytics Processing" style="whiteSpace=wrap;strokeWidth=2;fontSize=46;fontFamily=Gloria Hallelujah;fontSource=https%3A%2F%2Ffonts.googleapis.com%2Fcss%3Ffamily%3DGloria%2BHallelujah;labelBackgroundColor=none;strokeColor=default;align=center;verticalAlign=middle;fontColor=default;fillColor=default;" vertex="1" parent="1">
          <mxGeometry x="1990" y="976" width="530" height="214" as="geometry" />
        </mxCell>
        <mxCell id="zjnKQ3IpLmYWNhm0Xe3--13" value="13. Indexing" style="whiteSpace=wrap;strokeWidth=2;fontSize=46;fontFamily=Gloria Hallelujah;fontSource=https%3A%2F%2Ffonts.googleapis.com%2Fcss%3Ffamily%3DGloria%2BHallelujah;labelBackgroundColor=none;strokeColor=default;align=center;verticalAlign=middle;fontColor=default;fillColor=default;" vertex="1" parent="1">
          <mxGeometry x="2600" y="976" width="360" height="214" as="geometry" />
        </mxCell>
        <mxCell id="zjnKQ3IpLmYWNhm0Xe3--14" value="14. Confirmation" style="whiteSpace=wrap;strokeWidth=2;fontSize=46;fontFamily=Gloria Hallelujah;fontSource=https%3A%2F%2Ffonts.googleapis.com%2Fcss%3Ffamily%3DGloria%2BHallelujah;labelBackgroundColor=none;strokeColor=default;align=center;verticalAlign=middle;fontColor=default;fillColor=default;" vertex="1" parent="1">
          <mxGeometry x="1240" y="1450" width="550" height="78" as="geometry" />
        </mxCell>
        <mxCell id="zjnKQ3IpLmYWNhm0Xe3--16" value="" style="curved=1;startArrow=none;endArrow=block;exitX=0.5;exitY=1;entryX=0.5;entryY=0;rounded=0;fontSize=46;fontFamily=Gloria Hallelujah;fontSource=https%3A%2F%2Ffonts.googleapis.com%2Fcss%3Ffamily%3DGloria%2BHallelujah;labelBackgroundColor=light-dark(#FFFFFF,#000000);exitDx=0;exitDy=0;" edge="1" parent="1" source="zjnKQ3IpLmYWNhm0Xe3--38" target="zjnKQ3IpLmYWNhm0Xe3--3">
          <mxGeometry relative="1" as="geometry">
            <Array as="points" />
            <mxPoint x="1592.5" y="286" as="sourcePoint" />
          </mxGeometry>
        </mxCell>
        <mxCell id="zjnKQ3IpLmYWNhm0Xe3--17" value="" style="curved=1;startArrow=none;endArrow=block;exitX=0.5;exitY=1;entryX=0.5;entryY=0;rounded=0;fontSize=46;fontFamily=Gloria Hallelujah;fontSource=https%3A%2F%2Ffonts.googleapis.com%2Fcss%3Ffamily%3DGloria%2BHallelujah;labelBackgroundColor=light-dark(#FFFFFF,#000000);" edge="1" parent="1" source="zjnKQ3IpLmYWNhm0Xe3--3" target="zjnKQ3IpLmYWNhm0Xe3--4">
          <mxGeometry relative="1" as="geometry">
            <Array as="points" />
          </mxGeometry>
        </mxCell>
        <mxCell id="zjnKQ3IpLmYWNhm0Xe3--18" value="" style="curved=1;startArrow=none;endArrow=block;exitX=0.5;exitY=1;entryX=0.5;entryY=0;rounded=0;fontSize=46;fontFamily=Gloria Hallelujah;fontSource=https%3A%2F%2Ffonts.googleapis.com%2Fcss%3Ffamily%3DGloria%2BHallelujah;labelBackgroundColor=light-dark(#FFFFFF,#000000);" edge="1" parent="1" source="zjnKQ3IpLmYWNhm0Xe3--4" target="zjnKQ3IpLmYWNhm0Xe3--5">
          <mxGeometry relative="1" as="geometry">
            <Array as="points" />
          </mxGeometry>
        </mxCell>
        <mxCell id="zjnKQ3IpLmYWNhm0Xe3--19" value="" style="curved=1;startArrow=none;endArrow=block;exitX=0.5;exitY=1;entryX=0.5;entryY=0;rounded=0;fontSize=46;fontFamily=Gloria Hallelujah;fontSource=https%3A%2F%2Ffonts.googleapis.com%2Fcss%3Ffamily%3DGloria%2BHallelujah;labelBackgroundColor=light-dark(#FFFFFF,#000000);" edge="1" parent="1" source="zjnKQ3IpLmYWNhm0Xe3--5" target="zjnKQ3IpLmYWNhm0Xe3--6">
          <mxGeometry relative="1" as="geometry">
            <Array as="points" />
          </mxGeometry>
        </mxCell>
        <mxCell id="zjnKQ3IpLmYWNhm0Xe3--20" value="" style="curved=1;startArrow=none;endArrow=block;exitX=0;exitY=0.5;entryX=0.5;entryY=0;rounded=0;fontSize=46;fontFamily=Gloria Hallelujah;fontSource=https%3A%2F%2Ffonts.googleapis.com%2Fcss%3Ffamily%3DGloria%2BHallelujah;labelBackgroundColor=light-dark(#FFFFFF,#000000);exitDx=0;exitDy=0;" edge="1" parent="1" source="zjnKQ3IpLmYWNhm0Xe3--6" target="zjnKQ3IpLmYWNhm0Xe3--7">
          <mxGeometry relative="1" as="geometry">
            <Array as="points">
              <mxPoint x="580" y="823" />
            </Array>
          </mxGeometry>
        </mxCell>
        <mxCell id="zjnKQ3IpLmYWNhm0Xe3--21" value="" style="curved=1;startArrow=none;endArrow=block;entryX=0.5;entryY=0;rounded=0;fontSize=46;fontFamily=Gloria Hallelujah;fontSource=https%3A%2F%2Ffonts.googleapis.com%2Fcss%3Ffamily%3DGloria%2BHallelujah;labelBackgroundColor=light-dark(#FFFFFF,#000000);exitX=0;exitY=0.5;exitDx=0;exitDy=0;" edge="1" parent="1" source="zjnKQ3IpLmYWNhm0Xe3--6" target="zjnKQ3IpLmYWNhm0Xe3--8">
          <mxGeometry relative="1" as="geometry">
            <Array as="points">
              <mxPoint x="890" y="823" />
            </Array>
            <mxPoint x="1225" y="777" as="sourcePoint" />
          </mxGeometry>
        </mxCell>
        <mxCell id="zjnKQ3IpLmYWNhm0Xe3--22" value="" style="curved=1;startArrow=none;endArrow=block;exitX=0.5;exitY=1;entryX=0.5;entryY=0;rounded=0;fontSize=46;fontFamily=Gloria Hallelujah;fontSource=https%3A%2F%2Ffonts.googleapis.com%2Fcss%3Ffamily%3DGloria%2BHallelujah;labelBackgroundColor=light-dark(#FFFFFF,#000000);" edge="1" parent="1" source="zjnKQ3IpLmYWNhm0Xe3--6" target="zjnKQ3IpLmYWNhm0Xe3--9">
          <mxGeometry relative="1" as="geometry">
            <Array as="points" />
          </mxGeometry>
        </mxCell>
        <mxCell id="zjnKQ3IpLmYWNhm0Xe3--23" value="" style="curved=1;startArrow=none;endArrow=block;exitX=0.14;exitY=1;entryX=0.5;entryY=0;rounded=0;fontSize=46;fontFamily=Gloria Hallelujah;fontSource=https%3A%2F%2Ffonts.googleapis.com%2Fcss%3Ffamily%3DGloria%2BHallelujah;labelBackgroundColor=light-dark(#FFFFFF,#000000);" edge="1" parent="1" source="zjnKQ3IpLmYWNhm0Xe3--9" target="zjnKQ3IpLmYWNhm0Xe3--10">
          <mxGeometry relative="1" as="geometry">
            <Array as="points">
              <mxPoint x="1200" y="951" />
            </Array>
          </mxGeometry>
        </mxCell>
        <mxCell id="zjnKQ3IpLmYWNhm0Xe3--24" value="" style="curved=1;startArrow=none;endArrow=block;exitX=0.5;exitY=1;entryX=0.5;entryY=0;rounded=0;fontSize=46;edgeStyle=orthogonalEdgeStyle;fontFamily=Gloria Hallelujah;fontSource=https%3A%2F%2Ffonts.googleapis.com%2Fcss%3Ffamily%3DGloria%2BHallelujah;labelBackgroundColor=light-dark(#FFFFFF,#000000);exitDx=0;exitDy=0;" edge="1" parent="1" source="zjnKQ3IpLmYWNhm0Xe3--9" target="zjnKQ3IpLmYWNhm0Xe3--11">
          <mxGeometry relative="1" as="geometry" />
        </mxCell>
        <mxCell id="zjnKQ3IpLmYWNhm0Xe3--26" value="" style="curved=1;startArrow=none;endArrow=block;exitX=1;exitY=0.5;entryX=0.5;entryY=0;rounded=0;fontSize=46;fontFamily=Gloria Hallelujah;fontSource=https%3A%2F%2Ffonts.googleapis.com%2Fcss%3Ffamily%3DGloria%2BHallelujah;labelBackgroundColor=light-dark(#FFFFFF,#000000);edgeStyle=orthogonalEdgeStyle;exitDx=0;exitDy=0;" edge="1" parent="1" source="zjnKQ3IpLmYWNhm0Xe3--6" target="zjnKQ3IpLmYWNhm0Xe3--13">
          <mxGeometry relative="1" as="geometry" />
        </mxCell>
        <mxCell id="zjnKQ3IpLmYWNhm0Xe3--28" value="" style="curved=1;startArrow=none;endArrow=block;exitX=0.5;exitY=1;entryX=0;entryY=0.27;rounded=0;fontSize=46;edgeStyle=orthogonalEdgeStyle;fontFamily=Gloria Hallelujah;fontSource=https%3A%2F%2Ffonts.googleapis.com%2Fcss%3Ffamily%3DGloria%2BHallelujah;labelBackgroundColor=light-dark(#FFFFFF,#000000);" edge="1" parent="1" source="zjnKQ3IpLmYWNhm0Xe3--8" target="zjnKQ3IpLmYWNhm0Xe3--14">
          <mxGeometry relative="1" as="geometry" />
        </mxCell>
        <mxCell id="zjnKQ3IpLmYWNhm0Xe3--29" value="" style="curved=1;startArrow=none;endArrow=block;exitX=0.5;exitY=1;entryX=0;entryY=0.25;rounded=0;fontSize=46;edgeStyle=orthogonalEdgeStyle;entryDx=0;entryDy=0;fontFamily=Gloria Hallelujah;fontSource=https%3A%2F%2Ffonts.googleapis.com%2Fcss%3Ffamily%3DGloria%2BHallelujah;labelBackgroundColor=light-dark(#FFFFFF,#000000);" edge="1" parent="1" source="zjnKQ3IpLmYWNhm0Xe3--10" target="zjnKQ3IpLmYWNhm0Xe3--14">
          <mxGeometry relative="1" as="geometry">
            <Array as="points">
              <mxPoint x="1090" y="1190" />
              <mxPoint x="1090" y="1469" />
            </Array>
          </mxGeometry>
        </mxCell>
        <mxCell id="zjnKQ3IpLmYWNhm0Xe3--30" value="" style="curved=1;startArrow=none;endArrow=block;exitX=0.5;exitY=1;rounded=0;fontSize=46;edgeStyle=orthogonalEdgeStyle;fontFamily=Gloria Hallelujah;fontSource=https%3A%2F%2Ffonts.googleapis.com%2Fcss%3Ffamily%3DGloria%2BHallelujah;labelBackgroundColor=light-dark(#FFFFFF,#000000);" edge="1" parent="1" source="zjnKQ3IpLmYWNhm0Xe3--11">
          <mxGeometry relative="1" as="geometry">
            <Array as="points">
              <mxPoint x="1910" y="1190" />
              <mxPoint x="1910" y="1489" />
            </Array>
            <mxPoint x="1790" y="1489" as="targetPoint" />
          </mxGeometry>
        </mxCell>
        <mxCell id="zjnKQ3IpLmYWNhm0Xe3--31" value="" style="curved=1;startArrow=none;endArrow=block;exitX=0.5;exitY=1;entryX=1;entryY=0.27;rounded=0;fontSize=46;edgeStyle=orthogonalEdgeStyle;fontFamily=Gloria Hallelujah;fontSource=https%3A%2F%2Ffonts.googleapis.com%2Fcss%3Ffamily%3DGloria%2BHallelujah;labelBackgroundColor=light-dark(#FFFFFF,#000000);" edge="1" parent="1" source="zjnKQ3IpLmYWNhm0Xe3--12" target="zjnKQ3IpLmYWNhm0Xe3--14">
          <mxGeometry relative="1" as="geometry" />
        </mxCell>
        <mxCell id="zjnKQ3IpLmYWNhm0Xe3--32" value="" style="curved=1;startArrow=none;endArrow=block;exitX=0.5;exitY=1;entryX=1;entryY=0.36;rounded=0;fontSize=46;edgeStyle=orthogonalEdgeStyle;fontFamily=Gloria Hallelujah;fontSource=https%3A%2F%2Ffonts.googleapis.com%2Fcss%3Ffamily%3DGloria%2BHallelujah;labelBackgroundColor=light-dark(#FFFFFF,#000000);" edge="1" parent="1" source="zjnKQ3IpLmYWNhm0Xe3--13" target="zjnKQ3IpLmYWNhm0Xe3--14">
          <mxGeometry relative="1" as="geometry" />
        </mxCell>
        <mxCell id="zjnKQ3IpLmYWNhm0Xe3--35" value="" style="sketch=0;verticalLabelPosition=bottom;sketch=0;aspect=fixed;html=1;verticalAlign=top;align=center;outlineConnect=0;pointerEvents=1;shape=mxgraph.citrix2.mobile;fillColor=light-dark(#FFFFFF,#000000);strokeColor=light-dark(#000000,#000000);" vertex="1" parent="1">
          <mxGeometry x="1850" y="94" width="30" height="59.39" as="geometry" />
        </mxCell>
        <mxCell id="zjnKQ3IpLmYWNhm0Xe3--45" style="rounded=0;orthogonalLoop=1;jettySize=auto;html=1;exitX=0.5;exitY=1;exitDx=0;exitDy=0;" edge="1" parent="1" source="zjnKQ3IpLmYWNhm0Xe3--1">
          <mxGeometry relative="1" as="geometry">
            <mxPoint x="1550" y="30" as="targetPoint" />
          </mxGeometry>
        </mxCell>
        <mxCell id="zjnKQ3IpLmYWNhm0Xe3--48" value="" style="group" vertex="1" connectable="0" parent="1">
          <mxGeometry x="1225" y="336" width="735" height="78" as="geometry" />
        </mxCell>
        <mxCell id="zjnKQ3IpLmYWNhm0Xe3--3" value="3. Request Validation" style="whiteSpace=wrap;strokeWidth=2;fontSize=46;fontFamily=Gloria Hallelujah;fontSource=https%3A%2F%2Ffonts.googleapis.com%2Fcss%3Ffamily%3DGloria%2BHallelujah;labelBackgroundColor=none;strokeColor=#b46504;align=center;verticalAlign=middle;fillColor=#fad7ac;" vertex="1" parent="zjnKQ3IpLmYWNhm0Xe3--48">
          <mxGeometry width="735" height="78" as="geometry" />
        </mxCell>
        <mxCell id="zjnKQ3IpLmYWNhm0Xe3--46" value="V" style="verticalLabelPosition=middle;shadow=0;dashed=0;align=center;html=1;verticalAlign=middle;strokeWidth=4;shape=ellipse;aspect=fixed;fontSize=50;fillColor=#fad7ac;strokeColor=default;" vertex="1" parent="zjnKQ3IpLmYWNhm0Xe3--48">
          <mxGeometry x="645" y="4" width="70" height="70" as="geometry" />
        </mxCell>
        <mxCell id="zjnKQ3IpLmYWNhm0Xe3--49" value="" style="group" vertex="1" connectable="0" parent="1">
          <mxGeometry x="1120" y="464" width="935" height="78" as="geometry" />
        </mxCell>
        <mxCell id="zjnKQ3IpLmYWNhm0Xe3--4" value="4. Service Layer Processing" style="whiteSpace=wrap;strokeWidth=2;fontSize=46;fontFamily=Gloria Hallelujah;fontSource=https%3A%2F%2Ffonts.googleapis.com%2Fcss%3Ffamily%3DGloria%2BHallelujah;labelBackgroundColor=none;strokeColor=#432D57;align=center;verticalAlign=middle;fontColor=#ffffff;fillColor=#76608a;" vertex="1" parent="zjnKQ3IpLmYWNhm0Xe3--49">
          <mxGeometry width="935" height="78" as="geometry" />
        </mxCell>
        <mxCell id="zjnKQ3IpLmYWNhm0Xe3--47" value="" style="points=[];aspect=fixed;html=1;align=center;shadow=0;dashed=0;fillColor=#fad7ac;strokeColor=#b46504;shape=mxgraph.alibaba_cloud.mps_apsaravideo_media_processing;strokeWidth=3;" vertex="1" parent="zjnKQ3IpLmYWNhm0Xe3--49">
          <mxGeometry x="840" y="1.410000000000025" width="63" height="75.17" as="geometry" />
        </mxCell>
        <mxCell id="zjnKQ3IpLmYWNhm0Xe3--51" value="" style="group" vertex="1" connectable="0" parent="1">
          <mxGeometry x="1185" y="592" width="815" height="78" as="geometry" />
        </mxCell>
        <mxCell id="zjnKQ3IpLmYWNhm0Xe3--5" value="5. Data Transformation" style="whiteSpace=wrap;strokeWidth=2;fontSize=46;fontFamily=Gloria Hallelujah;fontSource=https%3A%2F%2Ffonts.googleapis.com%2Fcss%3Ffamily%3DGloria%2BHallelujah;labelBackgroundColor=none;strokeColor=#314354;align=center;verticalAlign=middle;fontColor=#ffffff;fillColor=#647687;" vertex="1" parent="zjnKQ3IpLmYWNhm0Xe3--51">
          <mxGeometry width="815" height="78" as="geometry" />
        </mxCell>
        <mxCell id="zjnKQ3IpLmYWNhm0Xe3--50" value="" style="verticalLabelPosition=bottom;aspect=fixed;html=1;shape=mxgraph.salesforce.transportation_and_technology2;strokeWidth=5;" vertex="1" parent="zjnKQ3IpLmYWNhm0Xe3--51">
          <mxGeometry x="735" y="10.5" width="60" height="60" as="geometry" />
        </mxCell>
        <mxCell id="zjnKQ3IpLmYWNhm0Xe3--53" value="" style="group" vertex="1" connectable="0" parent="1">
          <mxGeometry x="1225" y="720" width="735" height="78" as="geometry" />
        </mxCell>
        <mxCell id="zjnKQ3IpLmYWNhm0Xe3--6" value="6. Queueing System" style="whiteSpace=wrap;strokeWidth=2;fontSize=46;fontFamily=Gloria Hallelujah;fontSource=https%3A%2F%2Ffonts.googleapis.com%2Fcss%3Ffamily%3DGloria%2BHallelujah;labelBackgroundColor=none;strokeColor=#B20000;align=center;verticalAlign=middle;fontColor=#ffffff;fillColor=#e51400;" vertex="1" parent="zjnKQ3IpLmYWNhm0Xe3--53">
          <mxGeometry width="735" height="78" as="geometry" />
        </mxCell>
        <mxCell id="zjnKQ3IpLmYWNhm0Xe3--52" value="" style="points=[];aspect=fixed;html=1;align=center;shadow=0;dashed=0;fillColor=#b1ddf0;strokeColor=#10739e;shape=mxgraph.alibaba_cloud.mq_message_queue;" vertex="1" parent="zjnKQ3IpLmYWNhm0Xe3--53">
          <mxGeometry x="642" y="11" width="53.31" height="59" as="geometry" />
        </mxCell>
        <mxCell id="zjnKQ3IpLmYWNhm0Xe3--54" value="" style="group" vertex="1" connectable="0" parent="1">
          <mxGeometry x="1155" y="165" width="875" height="110" as="geometry" />
        </mxCell>
        <mxCell id="zjnKQ3IpLmYWNhm0Xe3--38" value="2. API Layer Reception" style="whiteSpace=wrap;strokeWidth=2;fontSize=46;fontFamily=Gloria Hallelujah;fontSource=https%3A%2F%2Ffonts.googleapis.com%2Fcss%3Ffamily%3DGloria%2BHallelujah;labelBackgroundColor=none;fillColor=#b0e3e6;strokeColor=#0e8088;" vertex="1" parent="zjnKQ3IpLmYWNhm0Xe3--54">
          <mxGeometry width="875" height="110" as="geometry" />
        </mxCell>
        <mxCell id="zjnKQ3IpLmYWNhm0Xe3--37" value="" style="sketch=0;html=1;verticalAlign=top;labelPosition=center;verticalLabelPosition=bottom;align=center;spacingTop=-6;fontSize=11;fontStyle=1;fontColor=#999999;shape=image;aspect=fixed;imageAspect=0;image=data:image/svg+xml,PHN2ZyB4bWxucz0iaHR0cDovL3d3dy53My5vcmcvMjAwMC9zdmciIGhlaWdodD0iMzY3LjgxODMyODg1NzQyMTkiIHZpZXdCb3g9IjcuMTA1NDI3MzU3NjAxMDAyZS0xNSAwIDM2Ni40MTAxODY3Njc1NzgxIDM2Ny44MTgzMjg4NTc0MjE5IiBwcmVzZXJ2ZUFzcGVjdFJhdGlvPSJ4TWlkWU1pZCBtZWV0IiB3aWR0aD0iMzY2LjQxMDE5Njc2NzU3OTEiIHZlcnNpb249IjEuMSIgaWQ9InN2Zzk4NyIgem9vbUFuZFBhbj0ibWFnbmlmeSI+JiN4YTsgIDxwYXRoIGQ9Im0gNDguMjUxOTYsMTExLjUzOTA2IGMgLTcuNjE4NjQsMmUtNCAtMTMuNzk0NzIsNi4xNzYyOCAtMTMuNzk0OTMsMTMuNzk0OTIgMi4xZS00LDcuNjE4NjQgNi4xNzYyOSwxMy43OTQ3MiAxMy43OTQ5MywxMy43OTQ5MiBoIDE0NS4xNDY5MiB2IC0yNy41ODk4NCB6IG0gMjM4LjYwODU5LDU3LjQ1MTE3IGggNjUuNzU0NjkgYyA3LjYxODY0LC0yLjFlLTQgMTMuNzk0NzEsLTYuMTc2MjggMTMuNzk0OTIsLTEzLjc5NDkyIC0yLjFlLTQsLTcuNjE4NjQgLTYuMTc2MjgsLTEzLjc5NDcxIC0xMy43OTQ5MiwtMTMuNzk0OTIgSCAyODQuODUwNiBaIE0gMTMuNzk0OTIsMTcwLjk3NDYxIEMgNi4xNzYyODAxLDE3MC45NzQ4MiAyLjEwMDkxOWUtNCwxNzcuMTUwODkgOS4xODk5MjFlLTgsMTg0Ljc2OTUzIC04LjY5OTA4MWUtNCwxOTIuMzg4OTMgNi4xNzU1MjAxLDE5OC41NjYxOSAxMy43OTQ5MiwxOTguNTY2NCBIIDE5My4zOTg4OCBWIDE3MC45NzQ2MSBaIE0gMjg0LjMwNzgsMjI3LjU2NjQgaCA2OC4zMDc0NCBjIDcuNjE4NjQsLTIuMWUtNCAxMy43OTQ3MSwtNi4xNzYyOCAxMy43OTQ5MiwtMTMuNzk0OTIgLTIuMWUtNCwtNy42MTg2NCAtNi4xNzYyOCwtMTMuNzk0NzEgLTEzLjc5NDkyLC0xMy43OTQ5MiBoIC02NS45MjE3OCB6IG0gLTIzNi4wNTU4NCwxLjY5NzI3IGMgLTcuNjE4NjQsMmUtNCAtMTMuNzk0NzIsNi4xNzYyOCAtMTMuNzk0OTMsMTMuNzk0OTIgMi4xZS00LDcuNjE4NjQgNi4xNzYyOSwxMy43OTQ3MiAxMy43OTQ5MywxMy43OTQ5MiBIIDE5My4zOTg4OCBWIDIyOS4yNjM2NyBaIE0gMTg5LjUyMTQ5LDAgYyAtMjQuNTc0MTEsMCAtNDkuMTY3MzcsMjAuMDU1MDcgLTU5LjQzNzUsNzUuMzczMDQgaCAzMC41ODAwNyBjIDQuNjE2MzMsLTI0LjE2MjA2IDE1LjM0ODk2LC00Ny41MjE0OCAyNy44NTM1MiwtNDcuNTIxNDggMTIuMTU4OCwwIDM5LjQ1ODk4LDU3LjQ1MDQ0IDM5LjQ1ODk4LDE2MC40MTQwNiAwLDY5LjkxNTEzIC0xOS41NzgwOSwxNTIuMTE1MjQgLTQxLjE3MTg3LDE1Mi4xMTUyMyAtMTUuMjY4ODEsMmUtNSAtMjEuMjE2NjgsLTI4LjMzMzU2IC0yNS40NDMzNiwtNDYuNzE4NzQgbCAtMzAuNDE0MDYsLTAuMDY4NCBjIDQuMjIwNzQsMjAuNTQwODcgMTYuOTA3NjgsNzQuMjI0NiA1Ny43MTI4OSw3NC4yMjQ2IDUzLjQzNjcyLDAgNjguOTEyMTEsLTExMS45OTMwNSA2OC45MTIxMSwtMTgwLjQ2Mjg5IEMgMjU3LjU3MjI3LDkzLjgwMDc2IDIzNi41ODM0LDAgMTg5LjUyMTQ5LDAgWiIgc3R5bGU9ImNvbG9yOiMwMDAwMDA7b3BhY2l0eToxO2ZpbGw6IzQyODVmNDtmaWxsLW9wYWNpdHk6MTtzdHJva2UtbGluZWNhcDpyb3VuZDstaW5rc2NhcGUtc3Ryb2tlOm5vbmUiLz4mI3hhOzwvc3ZnPg==;imageBackground=none;" vertex="1" parent="zjnKQ3IpLmYWNhm0Xe3--54">
          <mxGeometry x="765" y="5" width="100" height="100" as="geometry" />
        </mxCell>
        <mxCell id="zjnKQ3IpLmYWNhm0Xe3--55" value="" style="group" vertex="1" connectable="0" parent="1">
          <mxGeometry x="1217.5" y="24" width="750" height="90" as="geometry" />
        </mxCell>
        <mxCell id="zjnKQ3IpLmYWNhm0Xe3--1" value="1. Tweet Submission" style="whiteSpace=wrap;strokeWidth=2;fontSize=46;fontFamily=Gloria Hallelujah;fontSource=https%3A%2F%2Ffonts.googleapis.com%2Fcss%3Ffamily%3DGloria%2BHallelujah;labelBackgroundColor=none;fillColor=#1ba1e2;fontColor=#ffffff;strokeColor=#006EAF;rounded=1;glass=0;" vertex="1" parent="zjnKQ3IpLmYWNhm0Xe3--55">
          <mxGeometry y="6" width="750" height="78" as="geometry" />
        </mxCell>
        <mxCell id="zjnKQ3IpLmYWNhm0Xe3--43" value="" style="image;aspect=fixed;perimeter=ellipsePerimeter;html=1;align=center;shadow=0;dashed=0;spacingTop=3;image=img/lib/active_directory/cell_phone.svg;" vertex="1" parent="zjnKQ3IpLmYWNhm0Xe3--55">
          <mxGeometry x="655" width="37.8" height="90" as="geometry" />
        </mxCell>
        <mxCell id="zjnKQ3IpLmYWNhm0Xe3--56" style="rounded=0;orthogonalLoop=1;jettySize=auto;html=1;exitX=0.5;exitY=1;exitDx=0;exitDy=0;entryX=0.5;entryY=0;entryDx=0;entryDy=0;" edge="1" parent="1" source="zjnKQ3IpLmYWNhm0Xe3--1" target="zjnKQ3IpLmYWNhm0Xe3--38">
          <mxGeometry relative="1" as="geometry" />
        </mxCell>
      </root>
    </mxGraphModel>
  </diagram>
</mxfile>
